<?xml version="1.0" encoding="utf-8"?>
<!-- Generator: Adobe Illustrator 19.1.1, SVG Export Plug-In . SVG Version: 6.00 Build 0)  -->
<!DOCTYPE svg PUBLIC "-//W3C//DTD SVG 1.1//EN" "http://www.w3.org/Graphics/SVG/1.1/DTD/svg11.dtd">
<svg version="1.1" id="Layer_1" xmlns="http://www.w3.org/2000/svg" xmlns:xlink="http://www.w3.org/1999/xlink" x="0px" y="0px"
	 viewBox="0 0 416.3 421.4" enable-background="new 0 0 416.3 421.4" xml:space="preserve">
<g>
	<path fill="#2B343A" d="M354,421.4H63.4c-35,0-63.4-28.5-63.4-63.4V62.1c0-35,28.5-63.4,63.4-63.4h208v20.7h-208
		c-23.6,0-42.7,19.2-42.7,42.7v295.8c0,23.6,19.2,42.7,42.7,42.7H354c23.6,0,42.7-19.2,42.7-42.7v-226h20.7v226
		C417.5,392.9,389,421.4,354,421.4z"/>
</g>
<g>
	<polygon fill="#2B343A" points="163.3,184 229.9,251.5 404.6,78 338.3,11.7 	"/>
	<path fill="#2B343A" d="M229.9,263.2L151.5,184L338.3,0l78,78L229.9,263.2z M175,184.1l55,55.6L392.9,77.9l-54.6-54.6L175,184.1z"
		/>
</g>
<g>
	<polygon fill="#2B343A" points="149.6,211.2 130.5,284.2 202.9,266.2 	"/>
	<path fill="#2B343A" d="M118.9,295.5l26.4-100.7l73.5,75.9L118.9,295.5z M153.9,227.5L142,272.8l44.9-11.1L153.9,227.5z"/>
</g>
</svg>
