<?xml version="1.0" encoding="utf-8"?>
<!-- Generator: Adobe Illustrator 19.1.1, SVG Export Plug-In . SVG Version: 6.00 Build 0)  -->
<!DOCTYPE svg PUBLIC "-//W3C//DTD SVG 1.1//EN" "http://www.w3.org/Graphics/SVG/1.1/DTD/svg11.dtd">
<svg version="1.1" id="Layer_1" xmlns="http://www.w3.org/2000/svg" xmlns:xlink="http://www.w3.org/1999/xlink" x="0px" y="0px"
	 viewBox="-285 408.9 24 24" enable-background="new -285 408.9 24 24" xml:space="preserve">
<path fill="#FFFFFF" d="M-266,408.9h-14c-2.8,0-5,2.2-5,5v14c0,2.8,2.2,5,5,5h14c2.8,0,5-2.2,5-5v-14
	C-261,411.1-263.2,408.9-266,408.9z M-269,415.9h-1.9c-0.6,0-1.1,0.3-1.1,0.9v1.1h3l-0.2,3h-2.8v8h-3v-8h-2v-3h2V416
	c0-2,1.1-3.1,3.5-3.1h2.5V415.9z"/>
</svg>
