<?xml version="1.0" encoding="utf-8"?>
<!-- Generator: Adobe Illustrator 19.1.1, SVG Export Plug-In . SVG Version: 6.00 Build 0)  -->
<!DOCTYPE svg PUBLIC "-//W3C//DTD SVG 1.1//EN" "http://www.w3.org/Graphics/SVG/1.1/DTD/svg11.dtd">
<svg version="1.1" id="Layer_1" xmlns="http://www.w3.org/2000/svg" xmlns:xlink="http://www.w3.org/1999/xlink" x="0px" y="0px"
	 viewBox="-285 408.9 24 24" enable-background="new -285 408.9 24 24" xml:space="preserve">
<path fill="#FFFFFF" d="M-266,408.9h-14c-2.8,0-5,2.2-5,5v14c0,2.8,2.2,5,5,5h14c2.8,0,5-2.2,5-5v-14
	C-261,411.1-263.2,408.9-266,408.9z M-277,427.9h-3v-11h3V427.9z M-278.5,415.6c-1,0-1.8-0.8-1.8-1.8s0.8-1.8,1.8-1.8
	s1.8,0.8,1.8,1.8S-277.5,415.6-278.5,415.6z M-265,427.9h-3v-5.6c0-3.4-4-3.1-4,0v5.6h-3v-11h3v1.8c1.4-2.6,7-2.8,7,2.5V427.9z"/>
</svg>
