<?xml version="1.0" encoding="utf-8"?>
<!-- Generator: Adobe Illustrator 19.1.1, SVG Export Plug-In . SVG Version: 6.00 Build 0)  -->
<!DOCTYPE svg PUBLIC "-//W3C//DTD SVG 1.1//EN" "http://www.w3.org/Graphics/SVG/1.1/DTD/svg11.dtd">
<svg version="1.1" id="Layer_1" xmlns="http://www.w3.org/2000/svg" xmlns:xlink="http://www.w3.org/1999/xlink" x="0px" y="0px"
	 viewBox="0 0 378.5 140.6" enable-background="new 0 0 378.5 140.6" xml:space="preserve">
<g>
	<path fill="#FFFFFF" d="M117.6,104.7L117.6,104.7c-0.4,1-1,1.8-2.1,1.8h-8.7c-3.2,0-4.7-1.6-4.7-5v-8.7c0-3.5,1.5-5,4.7-5h8.4
		c0.6,0,1,0.1,1.3,0.4c0.4,0.3,0.6,0.8,0.9,1.5h0.2v-4.5c0-2.2-0.2-3.4-0.4-4.2h7.3v21.3c0,2.2,0.2,3.4,0.4,4.2H118L117.6,104.7z
		 M116.4,103.5c0.9,0,1.2-0.4,1.2-1.4V92c0-1-0.3-1.4-1.2-1.4h-6.1c-0.9,0-1.2,0.4-1.2,1.4v10.1c0,1,0.3,1.4,1.2,1.4H116.4z"/>
	<path fill="#FFFFFF" d="M128.6,113.6l-0.5-3.4c0.7,0.2,2.3,0.4,4.2,0.4h8.9c1.2,0,1.7-0.4,1.7-1.9v-4.2l-0.1-0.1
		c-0.2,0.8-0.5,1.3-0.8,1.6c-0.4,0.4-0.8,0.5-1.4,0.5h-8.4c-2.8,0-4.5-1.7-4.5-4.4v-12c0-0.6-0.1-1.5-0.4-2.4h7.4v14.8
		c0,0.6,0.4,1,1,1h6c0.8,0,1.2-0.4,1.2-1V90.1c0-0.6-0.1-1.5-0.4-2.4h7.4v20.6c0,3.7-1.8,5.3-4.5,5.3H128.6z"/>
	<path fill="#FFFFFF" d="M169.1,91.8c-1.2-0.2-2.1-0.4-4.7-0.4h-2.6c-0.8,0-1.2,0.4-1.2,1v9.8c0,2.2,0.2,3.4,0.4,4.2h-7.7
		c0.2-0.9,0.4-2,0.4-4.2V91.9c0-2.2-0.2-3.4-0.4-4.2h6.6l0.3,2h0.1c0.2-1.5,1.1-2,3.2-2h5.6V91.8z"/>
	<path fill="#FFFFFF" d="M177.6,98.8v3.4c0,1,0.3,1.4,1.2,1.4h12c0.6,0,1.4-0.1,2.2-0.2l-0.6,3.2h-17.1c-3.2,0-4.7-1.6-4.7-5v-8.7
		c0-3.5,1.5-5,4.7-5h13c3.2,0,4.7,1.6,4.7,5v6.1H177.6z M186.1,95.8V92c0-1-0.3-1.4-1.2-1.4h-6.1c-0.9,0-1.2,0.4-1.2,1.4v3.8H186.1z
		"/>
	<path fill="#FFFFFF" d="M218.3,87.7c-0.6,0.3-1.2,0.7-7,5l6.1,11.1c0.3,0.6,1.3,1.9,2.1,2.8h-8.1l-5.4-9.7l-2.7,2.1v3.4
		c0,2.2,0.2,3.4,0.4,4.2H196c0.2-0.9,0.4-2,0.4-4.2V85.1c0-2.2-0.2-3.4-0.4-4.2h7.3v14.2l8.1-6.2c0.5-0.4,0.8-0.7,0.9-1.2H218.3z"/>
	<path fill="#FFFFFF" d="M243.1,102.2c0,2.2,0.2,3.4,0.4,4.2h-6.4l-0.3-2h-0.1c-0.6,1.5-1.3,2-2.7,2h-8.6c-3.3,0-4.7-1.4-4.7-6.5
		c0-5.2,1.4-6.5,4.7-6.5h9.7c0.6,0,1-0.2,1-0.9v-1.2c0-0.6-0.4-0.9-1-0.9h-10.4c-1.2,0-1.9,0-3.3,0.4l0.4-3.2h16.5
		c3.2,0,4.7,1.6,4.7,5V102.2z M228.9,96.4c-0.9,0-1.2,0.4-1.2,1.4v4.4c0,1,0.3,1.4,1.2,1.4h6.1c0.9,0,1.2-0.4,1.2-1.4v-5.8H228.9z"
		/>
	<path fill="#FFFFFF" d="M266.9,102.3c0,2.8-1.6,4.2-4.8,4.2h-15.9l-0.5-3.2c1.1,0.4,2,0.4,4.5,0.4h8.4c0.9,0,1.5-0.5,1.5-1.2v-1
		c0-0.8-0.6-1.2-1.5-1.2h-8.8c-2.9,0-4.3-1.6-4.3-5.1v-2.3c0-3.5,1.4-5.1,4.3-5.1h16.5l0.5,3.2c-1.1-0.4-2-0.4-4.5-0.4h-8.7
		c-0.8,0-1.2,0.4-1.2,1.1v0.9c0,0.8,0.4,1.1,1.2,1.1h8.5c3.2,0,4.8,1.4,4.8,4.2V102.3z"/>
	<path fill="#FFFFFF" d="M290.5,102.3c0,2.8-1.6,4.2-4.8,4.2h-15.9l-0.5-3.2c1.1,0.4,2,0.4,4.5,0.4h8.4c0.9,0,1.5-0.5,1.5-1.2v-1
		c0-0.8-0.6-1.2-1.5-1.2h-8.8c-2.9,0-4.3-1.6-4.3-5.1v-2.3c0-3.5,1.4-5.1,4.3-5.1h16.5l0.5,3.2c-1.1-0.4-2-0.4-4.5-0.4h-8.7
		c-0.8,0-1.2,0.4-1.2,1.1v0.9c0,0.8,0.4,1.1,1.2,1.1h8.5c3.2,0,4.8,1.4,4.8,4.2V102.3z"/>
	<path fill="#FFFFFF" d="M299.9,98.8v3.4c0,1,0.3,1.4,1.2,1.4h12c0.6,0,1.4-0.1,2.2-0.2l-0.6,3.2h-17.1c-3.2,0-4.7-1.6-4.7-5v-8.7
		c0-3.5,1.5-5,4.7-5h13c3.2,0,4.7,1.6,4.7,5v6.1H299.9z M308.4,95.8V92c0-1-0.3-1.4-1.2-1.4h-6.1c-0.9,0-1.2,0.4-1.2,1.4v3.8H308.4z
		"/>
	<path fill="#FFFFFF" d="M325,87.7l0.2,1.9h0.1c0.5-1.5,1-1.9,2.1-1.9h8.5c3.2,0,4.7,1.6,4.7,5v9.5c0,2.2,0.2,3.4,0.4,4.2h-7.7
		c0.2-0.9,0.4-2,0.4-4.2V92c0-1-0.3-1.4-1.2-1.4h-5.9c-0.9,0-1.2,0.4-1.2,1.4v10.2c0,2.2,0.2,3.4,0.4,4.2h-7.7
		c0.2-0.9,0.4-2,0.4-4.2V91.9c0-2.2-0.2-3.4-0.4-4.2H325z"/>
	<path fill="#FFFFFF" d="M211.8,138.9L211.8,138.9c-0.4,1-1,1.8-2.1,1.8h-8.7c-3.2,0-4.7-1.6-4.7-5v-8.7c0-3.5,1.5-5,4.7-5h8.4
		c0.6,0,1,0.1,1.3,0.4c0.4,0.3,0.6,0.8,0.9,1.5h0.2v-4.5c0-2.2-0.2-3.4-0.4-4.2h7.3v21.3c0,2.2,0.2,3.4,0.4,4.2h-6.9L211.8,138.9z
		 M210.6,137.7c0.9,0,1.2-0.4,1.2-1.4v-10.1c0-1-0.3-1.4-1.2-1.4h-6.1c-0.9,0-1.2,0.4-1.2,1.4v10.1c0,1,0.3,1.4,1.2,1.4H210.6z"/>
	<path fill="#FFFFFF" d="M243.8,136.4c0,2.2,0.2,3.4,0.4,4.2h-6.4l-0.3-2h-0.1c-0.6,1.5-1.3,2-2.7,2h-8.6c-3.3,0-4.7-1.4-4.7-6.5
		c0-5.2,1.4-6.5,4.7-6.5h9.7c0.6,0,1-0.2,1-0.9v-1.2c0-0.6-0.4-0.9-1-0.9h-10.4c-1.2,0-1.9,0-3.3,0.4l0.4-3.2h16.5
		c3.2,0,4.7,1.6,4.7,5V136.4z M229.5,130.6c-0.9,0-1.2,0.4-1.2,1.4v4.4c0,1,0.3,1.4,1.2,1.4h6.1c0.9,0,1.2-0.4,1.2-1.4v-5.8H229.5z"
		/>
	<path fill="#FFFFFF" d="M253.5,121.8l0.2,1.9h0.1c0.5-1.5,1-1.9,2.1-1.9h8.5c3.2,0,4.7,1.6,4.7,5v9.5c0,2.2,0.2,3.4,0.4,4.2h-7.7
		c0.2-0.9,0.4-2,0.4-4.2v-10.2c0-1-0.3-1.4-1.2-1.4h-5.9c-0.9,0-1.2,0.4-1.2,1.4v10.2c0,2.2,0.2,3.4,0.4,4.2h-7.7
		c0.2-0.9,0.4-2,0.4-4.2v-10.3c0-2.2-0.2-3.4-0.4-4.2H253.5z"/>
	<path fill="#FFFFFF" d="M279.2,121.8l0.2,1.9h0.1c0.2-0.8,0.5-1.2,0.8-1.5c0.4-0.3,0.8-0.4,1.4-0.4h9.5c1.9,0,2.4,0.3,2.9,1.9H294
		c0.6-1.5,1.1-1.9,2.3-1.9h7.9c3.2,0,4.7,1.6,4.7,5v9.5c0,2.2,0.2,3.4,0.4,4.2h-7.7c0.2-0.9,0.4-2,0.4-4.2v-10.2
		c0-1-0.3-1.4-1.2-1.4h-5.3c-0.9,0-1.2,0.4-1.2,1.4v10.2c0,2.2,0.2,3.4,0.4,4.2h-7.7c0.2-0.9,0.4-2,0.4-4.2v-10.2
		c0-1-0.3-1.4-1.2-1.4h-5.3c-0.9,0-1.2,0.4-1.2,1.4v10.2c0,2.2,0.2,3.4,0.4,4.2h-7.7c0.2-0.9,0.4-2,0.4-4.2v-10.3
		c0-2.2-0.2-3.4-0.4-4.2H279.2z"/>
	<path fill="#FFFFFF" d="M334.3,136.4c0,2.2,0.2,3.4,0.4,4.2h-6.4l-0.3-2h-0.1c-0.6,1.5-1.3,2-2.7,2h-8.6c-3.3,0-4.7-1.4-4.7-6.5
		c0-5.2,1.4-6.5,4.7-6.5h9.7c0.6,0,1-0.2,1-0.9v-1.2c0-0.6-0.4-0.9-1-0.9H316c-1.2,0-1.9,0-3.3,0.4l0.4-3.2h16.5
		c3.2,0,4.7,1.6,4.7,5V136.4z M320.1,130.6c-0.9,0-1.2,0.4-1.2,1.4v4.4c0,1,0.3,1.4,1.2,1.4h6.1c0.9,0,1.2-0.4,1.2-1.4v-5.8H320.1z"
		/>
	<path fill="#FFFFFF" d="M353.2,126c-1.2-0.2-2.1-0.4-4.7-0.4h-2.6c-0.8,0-1.2,0.4-1.2,1v9.8c0,2.2,0.2,3.4,0.4,4.2h-7.7
		c0.2-0.9,0.4-2,0.4-4.2v-10.3c0-2.2-0.2-3.4-0.4-4.2h6.6l0.3,2h0.1c0.2-1.5,1.1-2,3.2-2h5.6V126z"/>
	<path fill="#FFFFFF" d="M377.3,121.8c-0.6,0.3-1.2,0.7-7,5l6.1,11.1c0.3,0.6,1.3,1.9,2.1,2.8h-8.1l-5.4-9.7l-2.7,2.1v3.4
		c0,2.2,0.2,3.4,0.4,4.2h-7.7c0.2-0.9,0.4-2,0.4-4.2v-17.1c0-2.2-0.2-3.4-0.4-4.2h7.3v14.2l8.1-6.2c0.5-0.4,0.8-0.7,0.9-1.2H377.3z"
		/>
	<path fill="#FFFFFF" d="M168.3,63.7c0.2,0,0.3-0.4,0.4-0.9c0.3-2-2.9-4-9-7.6c-4-2.3-6-3.4-7.6-4.2c-8.5-4.3-15.2-12.1-19-22.9
		c-2.6-7.2-5.5-13.4-10.7-19.2C115.1,1,107.5-2.4,97.3,1.9c-9.5,4-20.1,6.9-30.2,9.3c-9.4,2.2-18.5,17.6-20.3,26
		c-0.8,3.8-8.3,7.1-11.1,8.6c-6,3.4-36,12.3-35.7,17.9C0.4,69.6,5.1,75,9.9,79.4c0.3,0.3,0.5,0.6,0.6,1c1,4.6,2.6,14.9,3.9,16.1
		c0.6,1.4,2,2.7,2.8,3.6c3.4,3.8,8.2,5.8,13.4,6.8c0.6,0.1,1.1,0.5,1.4,1c2.3,4.5,6.6,8.4,11.4,9.2c5,0.8,8.4-3.2,12.9-3.9
		c8.4-1.3,18,8.5,23.8,15.4c1.1,1.3,3.3,0.7,3.5-1.1c0.4-4.4,0.8-9.8,0.3-12.9c-1-6.7-4-16.9-12.6-16.5c-1.8,0.1-3.6,0.2-5.4,0
		c-4.8-0.5-10.7-3.3-10.9-8.3c0-0.6-0.3-1.1-0.7-1.4c-2.8-2.3-5.3-5.1-6.9-8.1c-4.8-9.4,4.6-10.5,7.8-17.5
		c2.4-5.3,1.2-11.9,4.9-16.3c3.7-4.5,8.8-8.5,14.6-10.1c7.5-2.1,11.1-0.8,16.1-6.5c2.5-2.9,6.2-7.2,8.7-10c0.4-0.5,3.5,3.6,3.7,4.2
		c0.9,3.4,0.8,8,1.5,11.6c0.1,0.6,0.5,1.1,1.1,1.4c0.4,0.2,0.9,0.5,1.5,0.7c3.2,1.6,6,3.4,8.9,5.4C130.9,53.5,139.5,70.2,168.3,63.7
		z"/>
</g>
</svg>
