<?xml version="1.0" encoding="UTF-8" standalone="no"?>
<svg width="80px" height="80px" viewBox="0 0 80 80" version="1.1" xmlns="http://www.w3.org/2000/svg" xmlns:xlink="http://www.w3.org/1999/xlink" xmlns:sketch="http://www.bohemiancoding.com/sketch/ns">
    <!-- Generator: Sketch 3.5.1 (25234) - http://www.bohemiancoding.com/sketch -->
    <title>Group</title>
    <desc>Created with Sketch.</desc>
    <defs></defs>
    <g id="Page-1" stroke="none" stroke-width="1" fill="none" fill-rule="evenodd" sketch:type="MSPage">
        <g id="Group" sketch:type="MSLayerGroup">
            <circle id="Oval-1" fill="#2B343A" sketch:type="MSShapeGroup" cx="40" cy="40" r="40"></circle>
            <path d="M54.4172308,17.2307692 L26.8049231,17.2307692 C24.2387692,17.2307692 22.1538462,19.2676923 22.1538462,21.776 L22.1538462,59.4461538 C22.1538462,61.9544615 24.2387692,64 26.8049231,64 L54.4172308,64 C56.9833846,64 59.0683077,61.9544615 59.0683077,59.4461538 L59.0683077,21.776 C59.0683077,19.2676923 56.9833846,17.2307692 54.4172308,17.2307692 L54.4172308,17.2307692 Z M35.0264615,57.0658462 C35.0264615,57.4904615 34.6769231,57.8313846 34.2436923,57.8313846 L29.8313846,57.8313846 C29.3907692,57.8313846 29.0338462,57.4904615 29.0338462,57.0658462 L29.0338462,53.6270769 C29.0338462,53.2036923 29.3907692,52.848 29.8313846,52.848 L34.2436923,52.848 C34.6769231,52.848 35.0264615,53.2036923 35.0264615,53.6270769 L35.0264615,57.0658462 L35.0264615,57.0658462 Z M35.0264615,49.5630769 C35.0264615,49.9864615 34.6769231,50.3286154 34.2436923,50.3286154 L29.8313846,50.3286154 C29.3907692,50.3286154 29.0338462,49.9864615 29.0338462,49.5630769 L29.0338462,46.1243077 C29.0338462,45.7009231 29.3907692,45.3452308 29.8313846,45.3452308 L34.2436923,45.3452308 C34.6769231,45.3452308 35.0264615,45.7009231 35.0264615,46.1243077 L35.0264615,49.5630769 L35.0264615,49.5630769 Z M35.0264615,42.0578462 C35.0264615,42.4824615 34.6769231,42.8233846 34.2436923,42.8233846 L29.8313846,42.8233846 C29.3907692,42.8233846 29.0338462,42.4824615 29.0338462,42.0578462 L29.0338462,38.6203077 C29.0338462,38.1956923 29.3907692,37.84 29.8313846,37.84 L34.2436923,37.84 C34.6769231,37.84 35.0264615,38.1956923 35.0264615,38.6203077 L35.0264615,42.0578462 L35.0264615,42.0578462 Z M43.6073846,57.0658462 C43.6073846,57.4904615 43.2578462,57.8313846 42.8246154,57.8313846 L38.4123077,57.8313846 C37.9716923,57.8313846 37.6135385,57.4904615 37.6135385,57.0658462 L37.6135385,53.6270769 C37.6135385,53.2036923 37.9716923,52.848 38.4123077,52.848 L42.8246154,52.848 C43.2578462,52.848 43.6073846,53.2036923 43.6073846,53.6270769 L43.6073846,57.0658462 L43.6073846,57.0658462 Z M43.6073846,49.5630769 C43.6073846,49.9864615 43.2578462,50.3286154 42.8246154,50.3286154 L38.4123077,50.3286154 C37.9716923,50.3286154 37.6135385,49.9864615 37.6135385,49.5630769 L37.6135385,46.1243077 C37.6135385,45.7009231 37.9716923,45.3452308 38.4123077,45.3452308 L42.8246154,45.3452308 C43.2578462,45.3452308 43.6073846,45.7009231 43.6073846,46.1243077 L43.6073846,49.5630769 L43.6073846,49.5630769 Z M43.6073846,42.0578462 C43.6073846,42.4824615 43.2578462,42.8233846 42.8246154,42.8233846 L38.4123077,42.8233846 C37.9716923,42.8233846 37.6135385,42.4824615 37.6135385,42.0578462 L37.6135385,38.6203077 C37.6135385,38.1956923 37.9716923,37.84 38.4123077,37.84 L42.8246154,37.84 C43.2578462,37.84 43.6073846,38.1956923 43.6073846,38.6203077 L43.6073846,42.0578462 L43.6073846,42.0578462 Z M52.192,57.0658462 C52.192,57.4904615 51.8424615,57.8313846 51.4092308,57.8313846 L46.9969231,57.8313846 C46.5563077,57.8313846 46.1981538,57.4904615 46.1981538,57.0658462 L46.1981538,53.6270769 C46.1981538,53.2036923 46.5563077,52.848 46.9969231,52.848 L51.4092308,52.848 C51.8424615,52.848 52.192,53.2036923 52.192,53.6270769 L52.192,57.0658462 L52.192,57.0658462 Z M52.192,49.5630769 C52.192,49.9864615 51.8424615,50.3286154 51.4092308,50.3286154 L46.9969231,50.3286154 C46.5563077,50.3286154 46.1981538,49.9864615 46.1981538,49.5630769 L46.1981538,46.1243077 C46.1981538,45.7009231 46.5563077,45.3452308 46.9969231,45.3452308 L51.4092308,45.3452308 C51.8424615,45.3452308 52.192,45.7009231 52.192,46.1243077 L52.192,49.5630769 L52.192,49.5630769 Z M52.192,42.0578462 C52.192,42.4824615 51.8424615,42.8233846 51.4092308,42.8233846 L46.9969231,42.8233846 C46.5563077,42.8233846 46.1981538,42.4824615 46.1981538,42.0578462 L46.1981538,38.6203077 C46.1981538,38.1956923 46.5563077,37.84 46.9969231,37.84 L51.4092308,37.84 C51.8424615,37.84 52.192,38.1956923 52.192,38.6203077 L52.192,42.0578462 L52.192,42.0578462 Z M53.6406154,30.9489231 C53.6406154,31.824 52.8516923,32.5304615 51.8646154,32.5304615 L29.3723077,32.5304615 C28.3827692,32.5304615 27.5864615,31.824 27.5864615,30.9489231 L27.5864615,24.1107692 C27.5864615,23.2418462 28.3827692,22.5353846 29.3723077,22.5353846 L51.8646154,22.5353846 C52.8516923,22.5353846 53.6406154,23.2418462 53.6406154,24.1107692 L53.6406154,30.9489231 L53.6406154,30.9489231 Z" id="Shape" fill="#FFFFFF" sketch:type="MSShapeGroup"></path>
        </g>
    </g>
</svg>