<?xml version="1.0" encoding="utf-8"?>
<!-- Generator: Adobe Illustrator 19.1.1, SVG Export Plug-In . SVG Version: 6.00 Build 0)  -->
<!DOCTYPE svg PUBLIC "-//W3C//DTD SVG 1.1//EN" "http://www.w3.org/Graphics/SVG/1.1/DTD/svg11.dtd">
<svg version="1.1" id="Layer_1" xmlns="http://www.w3.org/2000/svg" xmlns:xlink="http://www.w3.org/1999/xlink" x="0px" y="0px"
	 viewBox="0 0 90 90" enable-background="new 0 0 90 90" xml:space="preserve">
<g>
	<g>
		<path fill-rule="evenodd" clip-rule="evenodd" fill="#FFFFFF" d="M82,0H8C3.6,0,0,3.6,0,8v74c0,4.4,3.6,8,8,8h74c4.4,0,8-3.6,8-8
			V8C90,3.6,86.4,0,82,0z"/>
	</g>
</g>
<g>
	<path fill="#2B343A" d="M15.5,32.5h59c1.9,0,3.5-1.6,3.5-3.5c0-1.9-1.6-3.5-3.5-3.5h-59c-1.9,0-3.5,1.6-3.5,3.5
		C12,30.9,13.6,32.5,15.5,32.5z"/>
	<path fill="#2B343A" d="M74.5,57.5h-59c-1.9,0-3.5,1.6-3.5,3.5c0,1.9,1.6,3.5,3.5,3.5h59c1.9,0,3.5-1.6,3.5-3.5
		C78,59.1,76.4,57.5,74.5,57.5z"/>
	<path fill="#2B343A" d="M74.5,41.5h-59c-1.9,0-3.5,1.6-3.5,3.5c0,1.9,1.6,3.5,3.5,3.5h59c1.9,0,3.5-1.6,3.5-3.5
		C78,43.1,76.4,41.5,74.5,41.5z"/>
</g>
</svg>
